<svg xmlns="http://www.w3.org/2000/svg" xmlns:xlink="http://www.w3.org/1999/xlink" width="300" height="300" version="1.1"><style type="text/css">.countrypath{stroke-width:2;stroke:#eee;fill:#000;stroke-opacity:1;fill-opacity:.7}</style><polygon points="59.848 23.245 62.879 19.571 59.848 15.897 53.788 15.897 50.758 12.223 53.788 8.549 50.758 4.875 53.788 1.201 59.848 1.201 62.879 -2.473 68.939 -2.473 71.97 -6.147 68.939 -9.821 71.97 -13.495 78.03 -13.495 81.061 -9.821 87.121 -9.821 90.152 -6.147 96.212 -6.147 99.242 -2.473 105.303 -2.473 108.333 -6.147 114.394 -6.147 117.424 -9.821 123.485 -9.821 126.515 -6.147 123.485 -2.473 117.424 -2.473 114.394 1.201 117.424 4.875 123.485 4.875 126.515 8.549 123.485 12.223 126.515 15.897 132.576 15.897 135.606 12.223 141.667 12.223 144.697 15.897 150.758 15.897 153.788 12.223 159.848 12.223 162.879 15.897 159.848 19.571 162.879 23.245 159.848 26.919 162.879 30.593 159.848 34.268 162.879 37.942 159.848 41.616 162.879 45.29 168.939 45.29 171.97 41.616 178.03 41.616 181.061 37.942 187.121 37.942 190.152 41.616 187.121 45.29 190.152 48.964 187.121 52.638 190.152 56.312 196.212 56.312 199.242 59.986 196.212 63.66 199.242 67.334 205.303 67.334 208.333 71.008 205.303 74.682 199.242 74.682 196.212 78.356 199.242 82.03 196.212 85.704 190.152 85.704 187.121 89.378 190.152 93.052 187.121 96.726 190.152 100.4 196.212 100.4 199.242 104.074 205.303 104.074 208.333 100.4 214.394 100.4 217.424 104.074 214.394 107.748 208.333 107.748 205.303 111.423 208.333 115.097 205.303 118.771 208.333 122.445 205.303 126.119 199.242 126.119 196.212 129.793 199.242 133.467 196.212 137.141 199.242 140.815 196.212 144.489 190.152 144.489 187.121 148.163 190.152 151.837 187.121 155.511 181.061 155.511 178.03 159.185 171.97 159.185 168.939 162.859 171.97 166.533 168.939 170.207 171.97 173.881 168.939 177.555 162.879 177.555 159.848 181.229 153.788 181.229 150.758 184.903 144.697 184.903 141.667 188.577 135.606 188.577 132.576 192.252 126.515 192.252 123.485 188.577 126.515 184.903 123.485 181.229 126.515 177.555 123.485 173.881 117.424 173.881 114.394 177.555 108.333 177.555 105.303 181.229 99.242 181.229 96.212 177.555 90.152 177.555 87.121 181.229 90.152 184.903 87.121 188.577 81.061 188.577 78.03 192.252 71.97 192.252 68.939 188.577 62.879 188.577 59.848 184.903 62.879 181.229 59.848 177.555 53.788 177.555 50.758 181.229 44.697 181.229 41.667 184.903 44.697 188.577 41.667 192.252 35.606 192.252 32.576 188.577 35.606 184.903 32.576 181.229 26.515 181.229 23.485 177.555 17.424 177.555 14.394 181.229 8.333 181.229 5.303 184.903 -.758 184.903 -3.788 181.229 -.758 177.555 -3.788 173.881 -.758 170.207 -3.788 166.533 -.758 162.859 -3.788 159.185 -9.848 159.185 -12.879 155.511 -18.939 155.511 -21.97 159.185 -28.03 159.185 -31.061 162.859 -37.121 162.859 -40.152 166.533 -46.212 166.533 -49.242 162.859 -46.212 159.185 -40.152 159.185 -37.121 155.511 -40.152 151.837 -46.212 151.837 -49.242 148.163 -46.212 144.489 -49.242 140.815 -55.303 140.815 -58.333 137.141 -64.394 137.141 -67.424 133.467 -64.394 129.793 -67.424 126.119 -64.394 122.445 -58.333 122.445 -55.303 118.771 -58.333 115.097 -55.303 111.423 -58.333 107.748 -64.394 107.748 -67.424 104.074 -64.394 100.4 -58.333 100.4 -55.303 96.726 -58.333 93.052 -55.303 89.378 -58.333 85.704 -64.394 85.704 -67.424 89.378 -73.485 89.378 -76.515 85.704 -73.485 82.03 -76.515 78.356 -73.485 74.682 -76.515 71.008 -82.576 71.008 -85.606 67.334 -82.576 63.66 -76.515 63.66 -73.485 67.334 -67.424 67.334 -64.394 63.66 -67.424 59.986 -64.394 56.312 -58.333 56.312 -55.303 52.638 -49.242 52.638 -46.212 56.312 -40.152 56.312 -37.121 52.638 -40.152 48.964 -37.121 45.29 -40.152 41.616 -37.121 37.942 -31.061 37.942 -28.03 34.268 -31.061 30.593 -28.03 26.919 -21.97 26.919 -18.939 30.593 -12.879 30.593 -9.848 26.919 -12.879 23.245 -9.848 19.571 -3.788 19.571 -.758 23.245 5.303 23.245 8.333 26.919 14.394 26.919 17.424 23.245 14.394 19.571 17.424 15.897 14.394 12.223 8.333 12.223 5.303 8.549 8.333 4.875 14.394 4.875 17.424 8.549 23.485 8.549 26.515 12.223 32.576 12.223 35.606 8.549 41.667 8.549 44.697 12.223 41.667 15.897 35.606 15.897 32.576 19.571 35.606 23.245 41.667 23.245 44.697 19.571 50.758 19.571 53.788 23.245" class="countrypath borderoutside"/><polygon points="-.758 45.29 5.303 45.29 8.333 41.616 5.303 37.942 8.333 34.268 5.303 30.593 -.758 30.593 -3.788 34.268 -.758 37.942 -3.788 41.616" class="countrypath borderinside"/></svg>