<svg xmlns="http://www.w3.org/2000/svg" xmlns:xlink="http://www.w3.org/1999/xlink" width="300" height="300" version="1.1"><style type="text/css">.countrypath{stroke-width:2;stroke:#eee;fill:#000;stroke-opacity:1;fill-opacity:.7}</style><polygon points="139.706 125.038 142.647 121.472 139.706 117.906 133.824 117.906 130.882 114.34 133.824 110.774 130.882 107.208 133.824 103.642 139.706 103.642 142.647 100.076 148.529 100.076 151.471 96.51 148.529 92.944 151.471 89.378 157.353 89.378 160.294 85.812 166.176 85.812 169.118 82.246 166.176 78.68 169.118 75.114 175 75.114 177.941 78.68 175 82.246 177.941 85.812 183.824 85.812 186.765 82.246 192.647 82.246 195.588 85.812 192.647 89.378 195.588 92.944 201.471 92.944 204.412 96.51 210.294 96.51 213.235 100.076 219.118 100.076 222.059 103.642 227.941 103.642 230.882 107.208 236.765 107.208 239.706 103.642 245.588 103.642 248.529 107.208 245.588 110.774 248.529 114.34 245.588 117.906 248.529 121.472 245.588 125.038 248.529 128.604 245.588 132.17 248.529 135.736 245.588 139.302 248.529 142.868 245.588 146.434 239.706 146.434 236.765 150 239.706 153.566 236.765 157.132 230.882 157.132 227.941 153.566 222.059 153.566 219.118 157.132 213.235 157.132 210.294 160.698 204.412 160.698 201.471 157.132 195.588 157.132 192.647 160.698 186.765 160.698 183.824 164.264 177.941 164.264 175 167.83 177.941 171.396 175 174.962 169.118 174.962 166.176 178.528 160.294 178.528 157.353 174.962 160.294 171.396 157.353 167.83 151.471 167.83 148.529 171.396 142.647 171.396 139.706 174.962 133.824 174.962 130.882 178.528 125 178.528 122.059 174.962 125 171.396 122.059 167.83 125 164.264 122.059 160.698 125 157.132 130.882 157.132 133.824 153.566 130.882 150 125 150 122.059 146.434 116.176 146.434 113.235 142.868 107.353 142.868 104.412 139.302 107.353 135.736 104.412 132.17 107.353 128.604 104.412 125.038 107.353 121.472 113.235 121.472 116.176 125.038 122.059 125.038 125 121.472 130.882 121.472 133.824 125.038" class="countrypath borderoutside"/><polygon points="227.941 139.302 230.882 142.868 236.765 142.868 239.706 139.302 236.765 135.736 230.882 135.736" class="countrypath borderinside"/><polygon points="160.294 171.396 157.353 174.962 160.294 178.528 166.176 178.528 169.118 174.962 175 174.962 177.941 171.396 175 167.83 177.941 164.264 183.824 164.264 186.765 160.698 192.647 160.698 195.588 157.132 201.471 157.132 204.412 160.698 201.471 164.264 204.412 167.83 210.294 167.83 213.235 164.264 219.118 164.264 222.059 167.83 227.941 167.83 230.882 171.396 227.941 174.962 222.059 174.962 219.118 178.528 222.059 182.094 219.118 185.66 222.059 189.226 227.941 189.226 230.882 192.792 227.941 196.358 230.882 199.924 227.941 203.49 222.059 203.49 219.118 207.056 222.059 210.622 227.941 210.622 230.882 214.188 227.941 217.754 230.882 221.32 227.941 224.886 222.059 224.886 219.118 228.452 213.235 228.452 210.294 232.018 213.235 235.584 210.294 239.15 213.235 242.716 210.294 246.282 204.412 246.282 201.471 242.716 195.588 242.716 192.647 246.282 186.765 246.282 183.824 249.848 186.765 253.414 183.824 256.98 186.765 260.546 183.824 264.112 177.941 264.112 175 260.546 169.118 260.546 166.176 264.112 160.294 264.112 157.353 260.546 160.294 256.98 157.353 253.414 151.471 253.414 148.529 249.848 142.647 249.848 139.706 253.414 133.824 253.414 130.882 249.848 125 249.848 122.059 253.414 116.176 253.414 113.235 256.98 116.176 260.546 113.235 264.112 107.353 264.112 104.412 260.546 107.353 256.98 104.412 253.414 98.529 253.414 95.588 249.848 89.706 249.848 86.765 246.282 80.882 246.282 77.941 242.716 80.882 239.15 77.941 235.584 72.059 235.584 69.118 239.15 63.235 239.15 60.294 235.584 63.235 232.018 60.294 228.452 63.235 224.886 60.294 221.32 63.235 217.754 60.294 214.188 63.235 210.622 60.294 207.056 54.412 207.056 51.471 203.49 54.412 199.924 51.471 196.358 45.588 196.358 42.647 192.792 45.588 189.226 51.471 189.226 54.412 185.66 51.471 182.094 54.412 178.528 60.294 178.528 63.235 174.962 69.118 174.962 72.059 171.396 69.118 167.83 63.235 167.83 60.294 164.264 63.235 160.698 60.294 157.132 63.235 153.566 69.118 153.566 72.059 150 69.118 146.434 72.059 142.868 77.941 142.868 80.882 139.302 77.941 135.736 80.882 132.17 86.765 132.17 89.706 135.736 95.588 135.736 98.529 132.17 104.412 132.17 107.353 135.736 104.412 139.302 107.353 142.868 113.235 142.868 116.176 146.434 122.059 146.434 125 150 130.882 150 133.824 153.566 130.882 157.132 125 157.132 122.059 160.698 125 164.264 122.059 167.83 125 171.396 122.059 174.962 125 178.528 130.882 178.528 133.824 174.962 139.706 174.962 142.647 171.396 148.529 171.396 151.471 167.83 157.353 167.83" class="countrypath borderoutside"/><polygon points="113.235 242.716 107.353 242.716 104.412 246.282 107.353 249.848 113.235 249.848 116.176 246.282" class="countrypath borderinside"/></svg>