<svg xmlns="http://www.w3.org/2000/svg" xmlns:xlink="http://www.w3.org/1999/xlink" width="300" height="300" version="1.1"><rect width="300" height="300" style="fill:#000;stroke:none"/><style type="text/css">.borderinside{stroke:none;fill:#000}.borderoutside{stroke:none;fill:#fff}</style><polygon points="69.444 69.171 80.556 69.171 86.111 62.435 97.222 62.435 102.778 55.699 113.889 55.699 119.444 48.964 113.889 42.228 119.444 35.492 130.556 35.492 136.111 42.228 130.556 48.964 136.111 55.699 130.556 62.435 136.111 69.171 147.222 69.171 152.778 62.435 163.889 62.435 169.444 69.171 163.889 75.907 169.444 82.642 180.556 82.642 186.111 89.378 197.222 89.378 202.778 96.114 197.222 102.85 202.778 109.585 197.222 116.321 202.778 123.057 197.222 129.793 202.778 136.528 213.889 136.528 219.444 143.264 230.556 143.264 236.111 150 230.556 156.736 236.111 163.472 230.556 170.207 219.444 170.207 213.889 176.943 219.444 183.679 230.556 183.679 236.111 190.415 230.556 197.15 236.111 203.886 247.222 203.886 252.778 210.622 247.222 217.358 236.111 217.358 230.556 224.093 219.444 224.093 213.889 217.358 202.778 217.358 197.222 210.622 186.111 210.622 180.556 217.358 169.444 217.358 163.889 210.622 152.778 210.622 147.222 217.358 136.111 217.358 130.556 224.093 119.444 224.093 113.889 217.358 102.778 217.358 97.222 210.622 86.111 210.622 80.556 203.886 69.444 203.886 63.889 197.15 52.778 197.15 47.222 203.886 36.111 203.886 30.556 210.622 19.444 210.622 13.889 203.886 19.444 197.15 13.889 190.415 2.778 190.415 -2.778 197.15 -13.889 197.15 -19.444 190.415 -13.889 183.679 -19.444 176.943 -30.556 176.943 -36.111 170.207 -30.556 163.472 -36.111 156.736 -30.556 150 -36.111 143.264 -30.556 136.528 -19.444 136.528 -13.889 129.793 -2.778 129.793 2.778 123.057 -2.778 116.321 -13.889 116.321 -19.444 109.585 -13.889 102.85 -2.778 102.85 2.778 96.114 -2.778 89.378 2.778 82.642 -2.778 75.907 2.778 69.171 13.889 69.171 19.444 75.907 30.556 75.907 36.111 69.171 47.222 69.171 52.778 62.435 47.222 55.699 36.111 55.699 30.556 48.964 36.111 42.228 47.222 42.228 52.778 48.964 63.889 48.964 69.444 55.699 63.889 62.435" class="countrypath borderoutside"/><polygon points="197.222 197.15 202.778 203.886 213.889 203.886 219.444 197.15 213.889 190.415 202.778 190.415" class="countrypath borderinside"/></svg>