<svg xmlns="http://www.w3.org/2000/svg" xmlns:xlink="http://www.w3.org/1999/xlink" width="300" height="300" version="1.1"><style type="text/css">.countrypath{stroke-width:2;stroke:#eee;fill:#000;stroke-opacity:1;fill-opacity:.7}</style><polygon points="175 154.663 171.154 159.326 175 163.99 182.692 163.99 186.538 168.653 182.692 173.316 186.538 177.979 182.692 182.642 175 182.642 171.154 177.979 175 173.316 171.154 168.653 163.462 168.653 159.615 173.316 151.923 173.316 148.077 177.979 140.385 177.979 136.538 182.642 140.385 187.306 136.538 191.969 128.846 191.969 125 196.632 117.308 196.632 113.462 191.969 105.769 191.969 101.923 196.632 94.231 196.632 90.385 201.295 82.692 201.295 78.846 196.632 71.154 196.632 67.308 201.295 59.615 201.295 55.769 196.632 48.077 196.632 44.231 191.969 36.538 191.969 32.692 187.306 25 187.306 21.154 182.642 13.462 182.642 9.615 177.979 1.923 177.979 -1.923 173.316 -9.615 173.316 -13.462 168.653 -9.615 163.99 -13.462 159.326 -9.615 154.663 -1.923 154.663 1.923 159.326 9.615 159.326 13.462 154.663 9.615 150 1.923 150 -1.923 145.337 1.923 140.674 -1.923 136.01 1.923 131.347 -1.923 126.684 -9.615 126.684 -13.462 122.021 -9.615 117.358 -13.462 112.694 -21.154 112.694 -25 108.031 -32.692 108.031 -36.538 103.368 -44.231 103.368 -48.077 98.705 -44.231 94.041 -36.538 94.041 -32.692 89.378 -25 89.378 -21.154 84.715 -25 80.052 -21.154 75.389 -13.462 75.389 -9.615 70.725 -1.923 70.725 1.923 66.062 -1.923 61.399 -9.615 61.399 -13.462 56.736 -9.615 52.073 -1.923 52.073 1.923 47.409 9.615 47.409 13.462 42.746 21.154 42.746 25 47.409 32.692 47.409 36.538 42.746 32.692 38.083 36.538 33.42 44.231 33.42 48.077 38.083 55.769 38.083 59.615 33.42 55.769 28.756 59.615 24.093 67.308 24.093 71.154 28.756 78.846 28.756 82.692 24.093 78.846 19.43 82.692 14.767 78.846 10.104 82.692 5.44 90.385 5.44 94.231 10.104 101.923 10.104 105.769 5.44 113.462 5.44 117.308 10.104 125 10.104 128.846 5.44 136.538 5.44 140.385 10.104 148.077 10.104 151.923 5.44 159.615 5.44 163.462 10.104 159.615 14.767 163.462 19.43 171.154 19.43 175 24.093 182.692 24.093 186.538 28.756 194.231 28.756 198.077 33.42 205.769 33.42 209.615 38.083 217.308 38.083 221.154 33.42 228.846 33.42 232.692 38.083 240.385 38.083 244.231 42.746 240.385 47.409 244.231 52.073 240.385 56.736 244.231 61.399 251.923 61.399 255.769 66.062 251.923 70.725 244.231 70.725 240.385 75.389 244.231 80.052 251.923 80.052 255.769 84.715 263.462 84.715 267.308 89.378 263.462 94.041 255.769 94.041 251.923 89.378 244.231 89.378 240.385 84.715 232.692 84.715 228.846 89.378 232.692 94.041 240.385 94.041 244.231 98.705 251.923 98.705 255.769 103.368 251.923 108.031 244.231 108.031 240.385 112.694 244.231 117.358 251.923 117.358 255.769 122.021 251.923 126.684 255.769 131.347 251.923 136.01 244.231 136.01 240.385 131.347 232.692 131.347 228.846 126.684 221.154 126.684 217.308 131.347 221.154 136.01 217.308 140.674 209.615 140.674 205.769 145.337 198.077 145.337 194.231 150 186.538 150 182.692 154.663" class="countrypath borderoutside"/></svg>